<?xml version="1.0" encoding="UTF-8" standalone="no"?>
<svg
   xmlns:dc="http://purl.org/dc/elements/1.1/"
   xmlns:cc="http://creativecommons.org/ns#"
   xmlns:rdf="http://www.w3.org/1999/02/22-rdf-syntax-ns#"
   xmlns:svg="http://www.w3.org/2000/svg"
   xmlns="http://www.w3.org/2000/svg"
   xmlns:sodipodi="http://sodipodi.sourceforge.net/DTD/sodipodi-0.dtd"
   xmlns:inkscape="http://www.inkscape.org/namespaces/inkscape"
   version="1.1"
   viewBox="0.0 0.0 960.0 390.0"
   fill="none"
   stroke="none"
   stroke-linecap="square"
   stroke-miterlimit="10"
   id="svg225"
   sodipodi:docname="Fluidex Architecture.svg"
   inkscape:version="0.92.5 (2060ec1f9f, 2020-04-08)">
  <metadata
     id="metadata231">
    <rdf:RDF>
      <cc:Work
         rdf:about="">
        <dc:format>image/svg+xml</dc:format>
        <dc:type
           rdf:resource="http://purl.org/dc/dcmitype/StillImage" />
      </cc:Work>
    </rdf:RDF>
  </metadata>
  <defs
     id="defs229" />
  <sodipodi:namedview
     pagecolor="#ffffff"
     bordercolor="#666666"
     borderopacity="1"
     objecttolerance="10"
     gridtolerance="10"
     guidetolerance="10"
     inkscape:pageopacity="0"
     inkscape:pageshadow="2"
     inkscape:window-width="2705"
     inkscape:window-height="1370"
     id="namedview227"
     showgrid="false"
     inkscape:zoom="1.3111111"
     inkscape:cx="286.82946"
     inkscape:cy="333.34751"
     inkscape:window-x="1974"
     inkscape:window-y="27"
     inkscape:window-maximized="0"
     inkscape:current-layer="g223" />
  <clipPath
     id="p.0">
    <path
       d="m0 0l960.0 0l0 720.0l-960.0 0l0 -720.0z"
       clip-rule="nonzero"
       id="path2" />
  </clipPath>
  <g
     clip-path="url(#p.0)"
     id="g223">
    <path
       d="M -0.76271187,-21.355932 H 959.23729 V 400.42373 H -0.76271187 Z"
       id="path5"
       inkscape:connector-curvature="0"
       style="fill:#000000;fill-opacity:0;fill-rule:evenodd;stroke-width:0.76537907" />
    <path
       inkscape:connector-curvature="0"
       style="fill:#cfe2f3;fill-rule:evenodd"
       d="m 131.78347,304.50831 h 140.47246 v 72.28345 H 131.78347 Z"
       id="path7" />
    <path
       inkscape:connector-curvature="0"
       style="fill-rule:evenodd;stroke:#000000;stroke-width:1;stroke-linecap:butt;stroke-linejoin:round"
       d="m 131.78347,304.50831 h 140.47246 v 72.28345 H 131.78347 Z"
       id="path9" />
    <path
       inkscape:connector-curvature="0"
       style="fill:#000000;fill-rule:nonzero"
       d="m 159.98947,347.57002 v -13.35937 h 2.65625 l 3.15625,9.45312 q 0.4375,1.32813 0.64062,1.98438 0.23438,-0.73438 0.70313,-2.14063 l 3.20312,-9.29687 h 2.375 v 13.35937 h -1.70312 v -11.17187 l -3.875,11.17187 h -1.59375 l -3.85938,-11.375 v 11.375 z m 14.77518,-4.84375 q 0,-2.6875 1.48437,-3.96875 1.25,-1.07812 3.04688,-1.07812 2,0 3.26562,1.3125 1.26563,1.29687 1.26563,3.60937 0,1.85938 -0.5625,2.9375 -0.5625,1.0625 -1.64063,1.65625 -1.0625,0.59375 -2.32812,0.59375 -2.03125,0 -3.28125,-1.29687 -1.25,-1.3125 -1.25,-3.76563 z m 1.6875,0 q 0,1.85938 0.79687,2.79688 0.8125,0.92187 2.04688,0.92187 1.21875,0 2.03125,-0.92187 0.8125,-0.9375 0.8125,-2.84375 0,-1.79688 -0.8125,-2.71875 -0.8125,-0.92188 -2.03125,-0.92188 -1.23438,0 -2.04688,0.92188 -0.79687,0.90625 -0.79687,2.76562 z m 10.79759,4.84375 h -1.51563 v -13.35937 h 1.64063 v 4.76562 q 1.04687,-1.29687 2.65625,-1.29687 0.89062,0 1.6875,0.35937 0.79687,0.35938 1.3125,1.01563 0.51562,0.64062 0.79687,1.5625 0.29688,0.92187 0.29688,1.96875 0,2.48437 -1.23438,3.84375 -1.21875,1.35937 -2.95312,1.35937 -1.70313,0 -2.6875,-1.4375 z m -0.0156,-4.90625 q 0,1.73438 0.48438,2.51563 0.76562,1.26562 2.09375,1.26562 1.07812,0 1.85937,-0.9375 0.78125,-0.9375 0.78125,-2.78125 0,-1.89062 -0.75,-2.79687 -0.75,-0.90625 -1.82812,-0.90625 -1.0625,0 -1.85938,0.9375 -0.78125,0.9375 -0.78125,2.70312 z m 8.89135,-6.5625 v -1.89062 h 1.64062 v 1.89062 z m 0,11.46875 v -9.67187 h 1.64062 v 9.67187 z m 4.09794,0 v -13.35937 h 1.64063 v 13.35937 z m 10.8167,-3.10937 1.6875,0.20312 q -0.40625,1.48438 -1.48438,2.3125 -1.07812,0.8125 -2.76562,0.8125 -2.125,0 -3.375,-1.29687 -1.23438,-1.3125 -1.23438,-3.67188 0,-2.45312 1.25,-3.79687 1.26563,-1.34375 3.26563,-1.34375 1.9375,0 3.15625,1.32812 1.23437,1.3125 1.23437,3.70313 0,0.15625 0,0.4375 h -7.21875 q 0.0937,1.59375 0.90625,2.45312 0.8125,0.84375 2.01563,0.84375 0.90625,0 1.54687,-0.46875 0.64063,-0.48437 1.01563,-1.51562 z m -5.39063,-2.65625 h 5.40625 q -0.10937,-1.21875 -0.625,-1.82813 -0.78125,-0.95312 -2.03125,-0.95312 -1.125,0 -1.90625,0.76562 -0.76562,0.75 -0.84375,2.01563 z m 12.02907,5.76562 5.125,-13.35937 h 1.90625 l 5.46875,13.35937 h -2.01562 l -1.54688,-4.04687 h -5.59375 l -1.46875,4.04687 z m 3.85938,-5.48437 h 4.53125 l -1.40625,-3.70313 q -0.625,-1.6875 -0.9375,-2.76562 -0.26563,1.28125 -0.71875,2.54687 z m 10.05294,5.48437 v -13.35937 h 5.04688 q 1.32812,0 2.03125,0.125 0.96875,0.17187 1.64062,0.64062 0.67188,0.45313 1.07813,1.28125 0.40625,0.82813 0.40625,1.82813 0,1.70312 -1.09375,2.89062 -1.07813,1.17188 -3.92188,1.17188 h -3.42187 v 5.42187 z m 1.76563,-7 h 3.45312 q 1.71875,0 2.4375,-0.64062 0.71875,-0.64063 0.71875,-1.79688 0,-0.84375 -0.42187,-1.4375 -0.42188,-0.59375 -1.125,-0.78125 -0.4375,-0.125 -1.64063,-0.125 h -3.42187 z m 10.67795,7 v -13.35937 h 5.04687 q 1.32813,0 2.03125,0.125 0.96875,0.17187 1.64063,0.64062 0.67187,0.45313 1.07812,1.28125 0.40625,0.82813 0.40625,1.82813 0,1.70312 -1.09375,2.89062 -1.07812,1.17188 -3.92187,1.17188 h -3.42188 v 5.42187 z m 1.76562,-7 h 3.45313 q 1.71875,0 2.4375,-0.64062 0.71875,-0.64063 0.71875,-1.79688 0,-0.84375 -0.42188,-1.4375 -0.42187,-0.59375 -1.125,-0.78125 -0.4375,-0.125 -1.64062,-0.125 h -3.42188 z"
       id="path11" />
    <path
       inkscape:connector-curvature="0"
       style="fill:#cfe2f3;fill-rule:evenodd"
       d="m 408.89371,304.50831 h 140.22046 v 72.28345 H 408.89371 Z"
       id="path13" />
    <path
       inkscape:connector-curvature="0"
       style="fill-rule:evenodd;stroke:#000000;stroke-width:1;stroke-linecap:butt;stroke-linejoin:round"
       d="m 408.89371,304.50831 h 140.22046 v 72.28345 H 408.89371 Z"
       id="path15" />
    <path
       inkscape:connector-curvature="0"
       style="fill:#000000;fill-rule:nonzero"
       d="m 447.8161,347.57002 -3.53125,-13.35937 h 1.8125 l 2.03125,8.76562 q 0.32812,1.375 0.5625,2.71875 0.5,-2.14062 0.59375,-2.46875 l 2.54687,-9.01562 h 2.125 l 1.92188,6.76562 q 0.71875,2.51563 1.03125,4.71875 0.26562,-1.26562 0.67187,-2.89062 l 2.09375,-8.59375 h 1.78125 l -3.67187,13.35937 h -1.70313 l -2.8125,-10.17187 q -0.35937,-1.28125 -0.42187,-1.5625 -0.20313,0.90625 -0.39063,1.5625 l -2.82812,10.17187 z m 21.36517,-3.10937 1.6875,0.20312 q -0.40625,1.48438 -1.48437,2.3125 -1.07813,0.8125 -2.76563,0.8125 -2.125,0 -3.375,-1.29687 -1.23437,-1.3125 -1.23437,-3.67188 0,-2.45312 1.25,-3.79687 1.26562,-1.34375 3.26562,-1.34375 1.9375,0 3.15625,1.32812 1.23438,1.3125 1.23438,3.70313 0,0.15625 0,0.4375 h -7.21875 q 0.0937,1.59375 0.90625,2.45312 0.8125,0.84375 2.01562,0.84375 0.90625,0 1.54688,-0.46875 0.64062,-0.48437 1.01562,-1.51562 z m -5.39062,-2.65625 h 5.40625 q -0.10938,-1.21875 -0.625,-1.82813 -0.78125,-0.95312 -2.03125,-0.95312 -1.125,0 -1.90625,0.76562 -0.76563,0.75 -0.84375,2.01563 z m 10.64132,5.76562 h -1.51562 v -13.35937 h 1.64062 v 4.76562 q 1.04688,-1.29687 2.65625,-1.29687 0.89063,0 1.6875,0.35937 0.79688,0.35938 1.3125,1.01563 0.51563,0.64062 0.79688,1.5625 0.29687,0.92187 0.29687,1.96875 0,2.48437 -1.23437,3.84375 -1.21875,1.35937 -2.95313,1.35937 -1.70312,0 -2.6875,-1.4375 z m -0.0156,-4.90625 q 0,1.73438 0.48437,2.51563 0.76563,1.26562 2.09375,1.26562 1.07813,0 1.85938,-0.9375 0.78125,-0.9375 0.78125,-2.78125 0,-1.89062 -0.75,-2.79687 -0.75,-0.90625 -1.82813,-0.90625 -1.0625,0 -1.85937,0.9375 -0.78125,0.9375 -0.78125,2.70312 z m 11.77908,4.90625 5.125,-13.35937 h 1.90625 l 5.46875,13.35937 h -2.01562 l -1.54688,-4.04687 h -5.59375 l -1.46875,4.04687 z m 3.85938,-5.48437 h 4.53125 l -1.40625,-3.70313 q -0.625,-1.6875 -0.9375,-2.76562 -0.26563,1.28125 -0.71875,2.54687 z m 10.05295,5.48437 v -13.35937 h 5.04687 q 1.32813,0 2.03125,0.125 0.96875,0.17187 1.64063,0.64062 0.67187,0.45313 1.07812,1.28125 0.40625,0.82813 0.40625,1.82813 0,1.70312 -1.09375,2.89062 -1.07812,1.17188 -3.92187,1.17188 h -3.42188 v 5.42187 z m 1.76562,-7 h 3.45313 q 1.71875,0 2.4375,-0.64062 0.71875,-0.64063 0.71875,-1.79688 0,-0.84375 -0.42188,-1.4375 -0.42187,-0.59375 -1.125,-0.78125 -0.4375,-0.125 -1.64062,-0.125 h -3.42188 z m 10.67792,7 v -13.35937 h 5.04687 q 1.32813,0 2.03125,0.125 0.96875,0.17187 1.64063,0.64062 0.67187,0.45313 1.07812,1.28125 0.40625,0.82813 0.40625,1.82813 0,1.70312 -1.09375,2.89062 -1.07812,1.17188 -3.92187,1.17188 h -3.42188 v 5.42187 z m 1.76562,-7 h 3.45313 q 1.71875,0 2.4375,-0.64062 0.71875,-0.64063 0.71875,-1.79688 0,-0.84375 -0.42188,-1.4375 -0.42187,-0.59375 -1.125,-0.78125 -0.4375,-0.125 -1.64062,-0.125 h -3.42188 z"
       id="path17" />
    <path
       inkscape:connector-curvature="0"
       style="fill:#cfe2f3;fill-rule:evenodd"
       d="m 685.75199,304.51096 h 140.22046 v 72.28345 H 685.75199 Z"
       id="path19" />
    <path
       inkscape:connector-curvature="0"
       style="fill-rule:evenodd;stroke:#000000;stroke-width:1;stroke-linecap:butt;stroke-linejoin:round"
       d="m 685.75199,304.51096 h 140.22046 v 72.28345 H 685.75199 Z"
       id="path21" />
    <path
       inkscape:connector-curvature="0"
       style="fill:#000000;fill-rule:nonzero"
       d="m 724.33874,347.57266 5.125,-13.35938 h 1.90625 l 5.46875,13.35938 h -2.01563 l -1.54687,-4.04688 h -5.59375 l -1.46875,4.04688 z m 3.85937,-5.48438 h 4.53125 l -1.40625,-3.70312 q -0.625,-1.6875 -0.9375,-2.76563 -0.26562,1.28125 -0.71875,2.54688 z m 10.05298,5.48438 v -13.35938 h 5.04688 q 1.32812,0 2.03125,0.125 0.96875,0.17188 1.64062,0.64063 0.67188,0.45312 1.07813,1.28125 0.40625,0.82812 0.40625,1.82812 0,1.70313 -1.09375,2.89063 -1.07813,1.17187 -3.92188,1.17187 h -3.42187 v 5.42188 z m 1.76563,-7 h 3.45312 q 1.71875,0 2.4375,-0.64063 0.71875,-0.64062 0.71875,-1.79687 0,-0.84375 -0.42187,-1.4375 -0.42188,-0.59375 -1.125,-0.78125 -0.4375,-0.125 -1.64063,-0.125 h -3.42187 z m 10.97479,7 v -13.35938 h 1.76563 v 13.35938 z m 9.99158,0 v -13.35938 h 5.01562 q 1.53125,0 2.45313,0.40625 0.92187,0.40625 1.4375,1.25 0.53125,0.84375 0.53125,1.76563 0,0.85937 -0.46875,1.625 -0.45313,0.75 -1.39063,1.20312 1.20313,0.35938 1.85938,1.21875 0.65625,0.85938 0.65625,2.01563 0,0.9375 -0.40625,1.75 -0.39063,0.79687 -0.98438,1.23437 -0.57812,0.4375 -1.45312,0.67188 -0.875,0.21875 -2.15625,0.21875 z m 1.78125,-7.75 h 2.875 q 1.1875,0 1.6875,-0.14063 0.67187,-0.20312 1.01562,-0.67187 0.34375,-0.46875 0.34375,-1.17188 0,-0.65625 -0.32812,-1.15625 -0.3125,-0.51562 -0.90625,-0.70312 -0.59375,-0.1875 -2.03125,-0.1875 h -2.65625 z m 0,6.17187 h 3.3125 q 0.85937,0 1.20312,-0.0625 0.60938,-0.10937 1.01563,-0.35937 0.42187,-0.26563 0.6875,-0.75 0.26562,-0.48438 0.26562,-1.125 0,-0.75 -0.39062,-1.29688 -0.375,-0.54687 -1.0625,-0.76562 -0.67188,-0.23438 -1.95313,-0.23438 h -3.07812 z m 9.92798,-3.26562 q 0,-2.6875 1.48437,-3.96875 1.25,-1.07813 3.04688,-1.07813 2,0 3.26562,1.3125 1.26563,1.29688 1.26563,3.60938 0,1.85937 -0.5625,2.9375 -0.5625,1.0625 -1.64063,1.65625 -1.0625,0.59375 -2.32812,0.59375 -2.03125,0 -3.28125,-1.29688 -1.25,-1.3125 -1.25,-3.76562 z m 1.6875,0 q 0,1.85937 0.79687,2.79687 0.8125,0.92188 2.04688,0.92188 1.21875,0 2.03125,-0.92188 0.8125,-0.9375 0.8125,-2.84375 0,-1.79687 -0.8125,-2.71875 -0.8125,-0.92187 -2.03125,-0.92187 -1.23438,0 -2.04688,0.92187 -0.79687,0.90625 -0.79687,2.76563 z m 12.87573,3.375 0.23437,1.45312 q -0.6875,0.14063 -1.23437,0.14063 -0.89063,0 -1.39063,-0.28125 -0.48437,-0.28125 -0.6875,-0.73438 -0.20312,-0.46875 -0.20312,-1.9375 v -5.57812 h -1.20313 v -1.26563 h 1.20313 v -2.39062 l 1.625,-0.98438 v 3.375 h 1.65625 v 1.26563 h -1.65625 v 5.67187 q 0,0.6875 0.0781,0.89063 0.0937,0.20312 0.28125,0.32812 0.20313,0.10938 0.57813,0.10938 0.26562,0 0.71875,-0.0625 z m 0.94891,-1.42188 1.625,-0.25 q 0.125,0.96875 0.75,1.5 0.625,0.51563 1.75,0.51563 1.125,0 1.67188,-0.45313 0.54687,-0.46875 0.54687,-1.09375 0,-0.54687 -0.48437,-0.875 -0.32813,-0.21875 -1.67188,-0.54687 -1.8125,-0.46875 -2.51562,-0.79688 -0.6875,-0.32812 -1.04688,-0.90625 -0.35937,-0.59375 -0.35937,-1.3125 0,-0.64062 0.29687,-1.1875 0.29688,-0.5625 0.8125,-0.92187 0.375,-0.28125 1.03125,-0.46875 0.67188,-0.20313 1.42188,-0.20313 1.14062,0 2,0.32813 0.85937,0.32812 1.26562,0.89062 0.42188,0.5625 0.57813,1.5 l -1.60938,0.21875 q -0.10937,-0.75 -0.64062,-1.17187 -0.51563,-0.42188 -1.46875,-0.42188 -1.14063,0 -1.625,0.375 -0.46875,0.375 -0.46875,0.875 0,0.3125 0.1875,0.57813 0.20312,0.26562 0.64062,0.4375 0.23438,0.0937 1.4375,0.42187 1.75,0.45313 2.4375,0.75 0.6875,0.29688 1.07813,0.85938 0.39062,0.5625 0.39062,1.40625 0,0.82812 -0.48437,1.54687 -0.46875,0.71875 -1.375,1.125 -0.90625,0.39063 -2.04688,0.39063 -1.875,0 -2.875,-0.78125 -0.98437,-0.78125 -1.25,-2.32813 z"
       id="path23" />
    <path
       inkscape:connector-curvature="0"
       style="fill:#000000;fill-opacity:0;fill-rule:evenodd"
       d="M -0.91994017,233.68941 962.51316,232.20912"
       id="path25" />
    <path
       inkscape:connector-curvature="0"
       style="fill-rule:evenodd;stroke:#000000;stroke-width:1;stroke-linecap:butt;stroke-linejoin:round"
       d="M -0.91994017,233.68941 962.51316,232.20912"
       id="path27" />
    <path
       inkscape:connector-curvature="0"
       style="fill:#000000;fill-opacity:0;fill-rule:evenodd"
       d="M 18.258537,254.34296 H 788.99873 v 42.01575 H 18.258537 Z"
       id="path29" />
    <path
       inkscape:connector-curvature="0"
       style="fill:#000000;fill-rule:nonzero"
       d="m 28.789787,281.26296 v -13.35938 h 9.015625 v 1.57813 h -7.25 v 4.14062 h 6.265625 v 1.57813 h -6.265625 v 6.0625 z m 11.083481,0 v -9.67188 h 1.46875 v 1.46875 q 0.5625,-1.03125 1.03125,-1.35937 0.484375,-0.32813 1.0625,-0.32813 0.828125,0 1.6875,0.53125 l -0.5625,1.51563 q -0.609375,-0.35938 -1.203125,-0.35938 -0.546875,0 -0.96875,0.32813 -0.421875,0.32812 -0.609375,0.89062 -0.28125,0.875 -0.28125,1.92188 v 5.0625 z m 5.618927,-4.84375 q 0,-2.6875 1.484375,-3.96875 1.25,-1.07813 3.046875,-1.07813 2,0 3.265625,1.3125 1.265625,1.29688 1.265625,3.60938 0,1.85937 -0.5625,2.9375 -0.5625,1.0625 -1.640625,1.65625 -1.0625,0.59375 -2.328125,0.59375 -2.03125,0 -3.28125,-1.29688 -1.25,-1.3125 -1.25,-3.76562 z m 1.6875,0 q 0,1.85937 0.796875,2.79687 0.8125,0.92188 2.046875,0.92188 1.21875,0 2.03125,-0.92188 0.8125,-0.9375 0.8125,-2.84375 0,-1.79687 -0.8125,-2.71875 -0.8125,-0.92187 -2.03125,-0.92187 -1.234375,0 -2.046875,0.92187 -0.796875,0.90625 -0.796875,2.76563 z m 9.297592,4.84375 v -9.67188 h 1.46875 v 1.375 q 1.0625,-1.59375 3.078125,-1.59375 0.875,0 1.609375,0.3125 0.734375,0.3125 1.09375,0.82813 0.375,0.5 0.515625,1.20312 0.09375,0.45313 0.09375,1.59375 v 5.95313 h -1.640625 v -5.89063 q 0,-1 -0.203125,-1.48437 -0.1875,-0.5 -0.671875,-0.79688 -0.484375,-0.29687 -1.140625,-0.29687 -1.046875,0 -1.8125,0.67187 -0.75,0.65625 -0.75,2.51563 v 5.28125 z m 13.953842,-1.46875 0.234375,1.45312 q -0.6875,0.14063 -1.234375,0.14063 -0.890625,0 -1.390625,-0.28125 -0.484375,-0.28125 -0.6875,-0.73438 -0.203125,-0.46875 -0.203125,-1.9375 v -5.57812 h -1.203125 v -1.26563 h 1.203125 v -2.39062 l 1.625,-0.98438 v 3.375 h 1.65625 v 1.26563 h -1.65625 v 5.67187 q 0,0.6875 0.07813,0.89063 0.09375,0.20312 0.28125,0.32812 0.203125,0.10938 0.578125,0.10938 0.265625,0 0.71875,-0.0625 z m 7.022858,1.46875 v -13.35938 h 9.65625 v 1.57813 h -7.875 v 4.09375 h 7.375 v 1.5625 h -7.375 v 4.54687 h 8.1875 v 1.57813 z m 12.209198,0 v -9.67188 h 1.46875 v 1.375 q 1.0625,-1.59375 3.078125,-1.59375 0.875002,0 1.609372,0.3125 0.73438,0.3125 1.09375,0.82813 0.374996,0.5 0.515626,1.20312 0.0937,0.45313 0.0937,1.59375 v 5.95313 h -1.640626 v -5.89063 q 0,-1 -0.20312,-1.48437 -0.1875,-0.5 -0.67188,-0.79688 -0.484372,-0.29687 -1.140622,-0.29687 -1.046875,0 -1.8125,0.67187 -0.75,0.65625 -0.75,2.51563 v 5.28125 z m 16.641335,0 v -1.21875 q -0.90625,1.4375 -2.70312,1.4375 -1.15625,0 -2.125,-0.64063 -0.96875,-0.64062 -1.500002,-1.78125 -0.53125,-1.14062 -0.53125,-2.625 0,-1.45312 0.48437,-2.625 0.484382,-1.1875 1.437502,-1.8125 0.96875,-0.625 2.17188,-0.625 0.875,0 1.54687,0.375 0.6875,0.35938 1.10938,0.95313 v -4.79688 h 1.64062 v 13.35938 z m -5.17187,-4.82813 q 0,1.85938 0.78125,2.78125 0.78125,0.92188 1.84375,0.92188 1.07812,0 1.82812,-0.875 0.75,-0.89063 0.75,-2.6875 0,-1.98438 -0.76562,-2.90625 -0.76563,-0.9375 -1.89063,-0.9375 -1.07812,0 -1.8125,0.89062 -0.73437,0.89063 -0.73437,2.8125 z"
       id="path31" />
    <path
       inkscape:connector-curvature="0"
       style="fill:#000000;fill-opacity:0;fill-rule:evenodd"
       d="M 18.258537,169.53981 H 139.23491 v 42.01575 H 18.258537 Z"
       id="path33" />
    <path
       inkscape:connector-curvature="0"
       style="fill:#000000;fill-rule:nonzero"
       d="m 28.617912,196.45982 v -13.35937 h 5.015625 q 1.53125,0 2.453125,0.40625 0.921875,0.40625 1.4375,1.25 0.53125,0.84375 0.53125,1.76562 0,0.85938 -0.46875,1.625 -0.453125,0.75 -1.390625,1.20313 1.203125,0.35937 1.859375,1.21875 0.65625,0.85937 0.65625,2.01562 0,0.9375 -0.40625,1.75 -0.390625,0.79688 -0.984375,1.23438 -0.578125,0.4375 -1.453125,0.67187 -0.875,0.21875 -2.15625,0.21875 z m 1.78125,-7.75 h 2.875 q 1.1875,0 1.6875,-0.14062 0.671875,-0.20313 1.015625,-0.67188 0.34375,-0.46875 0.34375,-1.17187 0,-0.65625 -0.328125,-1.15625 -0.3125,-0.51563 -0.90625,-0.70313 -0.59375,-0.1875 -2.03125,-0.1875 h -2.65625 z m 0,6.17188 h 3.3125 q 0.859375,0 1.203125,-0.0625 0.609375,-0.10938 1.015625,-0.35938 0.421875,-0.26562 0.6875,-0.75 0.265625,-0.48437 0.265625,-1.125 0,-0.75 -0.390625,-1.29687 -0.375,-0.54688 -1.0625,-0.76563 -0.671875,-0.23437 -1.953125,-0.23437 h -3.078125 z m 16.849823,0.39062 q -0.921875,0.76563 -1.765625,1.09375 -0.828125,0.3125 -1.796875,0.3125 -1.59375,0 -2.453125,-0.78125 -0.859375,-0.78125 -0.859375,-1.98437 0,-0.71875 0.328125,-1.29688 0.328125,-0.59375 0.84375,-0.9375 0.53125,-0.35937 1.1875,-0.54687 0.46875,-0.125 1.453125,-0.25 1.984375,-0.23438 2.921875,-0.5625 0.01563,-0.34375 0.01563,-0.42188 0,-1 -0.46875,-1.42187 -0.625,-0.54688 -1.875,-0.54688 -1.15625,0 -1.703125,0.40625 -0.546875,0.40625 -0.8125,1.42188 l -1.609375,-0.21875 q 0.21875,-1.01563 0.71875,-1.64063 0.5,-0.64062 1.453125,-0.98437 0.953125,-0.34375 2.1875,-0.34375 1.25,0 2.015625,0.29687 0.78125,0.28125 1.140625,0.73438 0.375,0.4375 0.515625,1.10937 0.07813,0.42188 0.07813,1.51563 v 2.1875 q 0,2.28125 0.109375,2.89062 0.109375,0.59375 0.40625,1.15625 H 47.57712 q -0.265625,-0.51562 -0.328125,-1.1875 z m -0.140625,-3.67187 q -0.890625,0.375 -2.671875,0.625 -1.015625,0.14062 -1.4375,0.32812 -0.421875,0.1875 -0.65625,0.53125 -0.21875,0.34375 -0.21875,0.78125 0,0.65625 0.5,1.09375 0.5,0.4375 1.453125,0.4375 0.9375,0 1.671875,-0.40625 0.75,-0.42187 1.09375,-1.14062 0.265625,-0.5625 0.265625,-1.64063 z m 10.516342,1.3125 1.609375,0.21875 q -0.265625,1.65625 -1.359375,2.60937 -1.078125,0.9375 -2.671875,0.9375 -1.984375,0 -3.1875,-1.29687 -1.203125,-1.29688 -1.203125,-3.71875 0,-1.57813 0.515625,-2.75 0.515625,-1.17188 1.578125,-1.75 1.0625,-0.59375 2.3125,-0.59375 1.578125,0 2.578125,0.79687 1,0.79688 1.28125,2.26563 l -1.59375,0.23437 q -0.234375,-0.96875 -0.8125,-1.45312 -0.578125,-0.5 -1.390625,-0.5 -1.234375,0 -2.015625,0.89062 -0.78125,0.89063 -0.78125,2.8125 0,1.95313 0.75,2.84375 0.75,0.875 1.953125,0.875 0.96875,0 1.609375,-0.59375 0.65625,-0.59375 0.828125,-1.82812 z m 3.015625,3.54687 v -13.35937 h 1.640625 v 7.625 l 3.890625,-3.9375 h 2.109375 l -3.6875,3.59375 4.0625,6.07812 h -2.015625 l -3.203125,-4.95312 -1.15625,1.125 v 3.82812 z m 15.953125,-3.10937 1.6875,0.20312 q -0.40625,1.48438 -1.484375,2.3125 -1.078125,0.8125 -2.765625,0.8125 -2.125,0 -3.375,-1.29687 -1.234375,-1.3125 -1.234375,-3.67188 0,-2.45312 1.25,-3.79687 1.265625,-1.34375 3.265625,-1.34375 1.9375,0 3.15625,1.32812 1.234375,1.3125 1.234375,3.70313 0,0.15625 0,0.4375 h -7.21875 q 0.09375,1.59375 0.90625,2.45312 0.8125,0.84375 2.015625,0.84375 0.90625,0 1.546875,-0.46875 0.640625,-0.48437 1.015625,-1.51562 z m -5.390625,-2.65625 h 5.40625 q -0.109375,-1.21875 -0.625,-1.82813 -0.78125,-0.95312 -2.03125,-0.95312 -1.125,0 -1.90625,0.76562 -0.765625,0.75 -0.84375,2.01563 z m 9.141342,5.76562 v -9.67187 h 1.46875 v 1.375 q 1.0625,-1.59375 3.078125,-1.59375 0.875,0 1.609375,0.3125 0.734375,0.3125 1.09375,0.82812 0.375,0.5 0.515625,1.20313 0.09375,0.45312 0.09375,1.59375 v 5.95312 h -1.640625 v -5.89062 q 0,-1 -0.203125,-1.48438 -0.1875,-0.5 -0.671875,-0.79687 -0.484375,-0.29688 -1.140625,-0.29688 -1.046875,0 -1.8125,0.67188 -0.75,0.65625 -0.75,2.51562 v 5.28125 z m 16.641343,0 v -1.21875 q -0.90625,1.4375 -2.703126,1.4375 -1.15625,0 -2.125,-0.64062 -0.96875,-0.64063 -1.5,-1.78125 -0.53125,-1.14063 -0.53125,-2.625 0,-1.45313 0.484375,-2.625 0.484375,-1.1875 1.4375,-1.8125 0.96875,-0.625 2.171875,-0.625 0.874996,0 1.546876,0.375 0.6875,0.35937 1.10937,0.95312 v -4.79687 h 1.640626 v 13.35937 z m -5.171876,-4.82812 q 0,1.85937 0.78125,2.78125 0.78125,0.92187 1.84375,0.92187 1.078126,0 1.828126,-0.875 0.75,-0.89062 0.75,-2.6875 0,-1.98437 -0.76563,-2.90625 -0.76562,-0.9375 -1.890621,-0.9375 -1.078125,0 -1.8125,0.89063 -0.734375,0.89062 -0.734375,2.8125 z"
       id="path35" />
    <path
       inkscape:connector-curvature="0"
       style="fill:#cfe2f3;fill-rule:evenodd"
       d="m 131.78347,159.91776 h 694.9921 v 72.28348 h -694.9921 z"
       id="path37" />
    <path
       inkscape:connector-curvature="0"
       style="fill-rule:evenodd;stroke:#000000;stroke-width:1;stroke-linecap:butt;stroke-linejoin:round"
       d="m 131.78347,159.91776 h 694.9921 v 72.28348 h -694.9921 z"
       id="path39" />
    <path
       inkscape:connector-curvature="0"
       style="fill:#000000;fill-rule:nonzero"
       d="m 286.69342,202.97951 v -13.35938 h 9.65625 v 1.57813 h -7.875 v 4.09375 h 7.375 v 1.5625 h -7.375 v 4.54687 h 8.1875 v 1.57813 z m 12.2092,0 v -9.67188 h 1.46875 v 1.375 q 1.0625,-1.59375 3.07812,-1.59375 0.875,0 1.60938,0.3125 0.73437,0.3125 1.09375,0.82813 0.375,0.5 0.51562,1.20312 0.0937,0.45313 0.0937,1.59375 v 5.95313 h -1.64062 v -5.89063 q 0,-1 -0.20313,-1.48437 -0.1875,-0.5 -0.67187,-0.79688 -0.48438,-0.29687 -1.14063,-0.29687 -1.04687,0 -1.8125,0.67187 -0.75,0.65625 -0.75,2.51563 v 5.28125 z m 13.06323,0 -3.6875,-9.67188 h 1.73437 l 2.07813,5.79688 q 0.32812,0.9375 0.625,1.9375 0.20312,-0.76563 0.60937,-1.82813 l 2.14063,-5.90625 h 1.6875 l -3.65625,9.67188 z m 6.03125,-4.84375 q 0,-2.6875 1.48437,-3.96875 1.25,-1.07813 3.04688,-1.07813 2,0 3.26562,1.3125 1.26563,1.29688 1.26563,3.60938 0,1.85937 -0.5625,2.9375 -0.5625,1.0625 -1.64063,1.65625 -1.0625,0.59375 -2.32812,0.59375 -2.03125,0 -3.28125,-1.29688 -1.25,-1.3125 -1.25,-3.76562 z m 1.6875,0 q 0,1.85937 0.79687,2.79687 0.8125,0.92188 2.04688,0.92188 1.21875,0 2.03125,-0.92188 0.8125,-0.9375 0.8125,-2.84375 0,-1.79687 -0.8125,-2.71875 -0.8125,-0.92187 -2.03125,-0.92187 -1.23438,0 -2.04688,0.92187 -0.79687,0.90625 -0.79687,2.76563 z m 9.21945,8.5625 -0.1875,-1.53125 q 0.54688,0.14062 0.9375,0.14062 0.54688,0 0.875,-0.1875 0.32813,-0.17187 0.54688,-0.5 0.15625,-0.25 0.5,-1.21875 0.0469,-0.14062 0.14062,-0.40625 l -3.67187,-9.6875 h 1.76562 l 2.01563,5.59375 q 0.39062,1.07813 0.70312,2.25 0.28125,-1.125 0.67188,-2.20312 l 2.07812,-5.64063 h 1.64063 l -3.6875,9.82813 q -0.59375,1.60937 -0.92188,2.20312 -0.4375,0.8125 -1,1.1875 -0.5625,0.375 -1.34375,0.375 -0.48437,0 -1.0625,-0.20312 z m 21.0427,-8.95313 v -1.57812 h 5.65625 v 4.95312 q -1.29688,1.04688 -2.6875,1.57813 -1.375,0.51562 -2.84375,0.51562 -1.96875,0 -3.57813,-0.84375 -1.60937,-0.84375 -2.42187,-2.4375 -0.8125,-1.59375 -0.8125,-3.5625 0,-1.95312 0.8125,-3.64062 0.8125,-1.6875 2.34375,-2.5 1.53125,-0.82813 3.51562,-0.82813 1.45313,0 2.625,0.46875 1.17188,0.46875 1.82813,1.3125 0.67187,0.82813 1.01562,2.17188 l -1.59375,0.4375 q -0.29687,-1.01563 -0.75,-1.59375 -0.4375,-0.59375 -1.26562,-0.9375 -0.82813,-0.34375 -1.84375,-0.34375 -1.20313,0 -2.09375,0.375 -0.89063,0.35937 -1.4375,0.96875 -0.53125,0.59375 -0.82813,1.3125 -0.51562,1.23437 -0.51562,2.6875 0,1.78125 0.60937,2.98437 0.625,1.20313 1.79688,1.79688 1.17187,0.57812 2.5,0.57812 1.14062,0 2.23437,-0.4375 1.09375,-0.45312 1.65625,-0.95312 v -2.48438 z m 14.37078,4.04688 q -0.92187,0.76562 -1.76562,1.09375 -0.82813,0.3125 -1.79688,0.3125 -1.59375,0 -2.45312,-0.78125 -0.85938,-0.78125 -0.85938,-1.98438 0,-0.71875 0.32813,-1.29687 0.32812,-0.59375 0.84375,-0.9375 0.53125,-0.35938 1.1875,-0.54688 0.46875,-0.125 1.45312,-0.25 1.98438,-0.23437 2.92188,-0.5625 0.0156,-0.34375 0.0156,-0.42187 0,-1 -0.46875,-1.42188 -0.625,-0.54687 -1.875,-0.54687 -1.15625,0 -1.70312,0.40625 -0.54688,0.40625 -0.8125,1.42187 l -1.60938,-0.21875 q 0.21875,-1.01562 0.71875,-1.64062 0.5,-0.64063 1.45313,-0.98438 0.95312,-0.34375 2.1875,-0.34375 1.25,0 2.01562,0.29688 0.78125,0.28125 1.14063,0.73437 0.375,0.4375 0.51562,1.10938 0.0781,0.42187 0.0781,1.51562 v 2.1875 q 0,2.28125 0.10937,2.89063 0.10938,0.59375 0.40625,1.15625 h -1.70312 q -0.26563,-0.51563 -0.32813,-1.1875 z m -0.14062,-3.67188 q -0.89063,0.375 -2.67188,0.625 -1.01562,0.14063 -1.4375,0.32813 -0.42187,0.1875 -0.65625,0.53125 -0.21875,0.34375 -0.21875,0.78125 0,0.65625 0.5,1.09375 0.5,0.4375 1.45313,0.4375 0.9375,0 1.67187,-0.40625 0.75,-0.42188 1.09375,-1.14063 0.26563,-0.5625 0.26563,-1.64062 z m 7.78198,3.39063 0.23438,1.45312 q -0.6875,0.14063 -1.23438,0.14063 -0.89062,0 -1.39062,-0.28125 -0.48438,-0.28125 -0.6875,-0.73438 -0.20313,-0.46875 -0.20313,-1.9375 v -5.57812 h -1.20312 v -1.26563 h 1.20312 v -2.39062 l 1.625,-0.98438 v 3.375 h 1.65625 v 1.26563 h -1.65625 v 5.67187 q 0,0.6875 0.0781,0.89063 0.0937,0.20312 0.28125,0.32812 0.20312,0.10938 0.57812,0.10938 0.26563,0 0.71875,-0.0625 z m 8.23017,-1.64063 1.6875,0.20313 q -0.40625,1.48437 -1.48438,2.3125 -1.07812,0.8125 -2.76562,0.8125 -2.125,0 -3.375,-1.29688 -1.23438,-1.3125 -1.23438,-3.67187 0,-2.45313 1.25,-3.79688 1.26563,-1.34375 3.26563,-1.34375 1.9375,0 3.15625,1.32813 1.23437,1.3125 1.23437,3.70312 0,0.15625 0,0.4375 h -7.21875 q 0.0937,1.59375 0.90625,2.45313 0.8125,0.84375 2.01563,0.84375 0.90625,0 1.54687,-0.46875 0.64063,-0.48438 1.01563,-1.51563 z m -5.39063,-2.65625 h 5.40625 q -0.10937,-1.21875 -0.625,-1.82812 -0.78125,-0.95313 -2.03125,-0.95313 -1.125,0 -1.90625,0.76563 -0.76562,0.75 -0.84375,2.01562 z m 10.92261,5.76563 -2.96875,-9.67188 h 1.70312 l 1.53125,5.57813 0.57813,2.07812 q 0.0469,-0.15625 0.5,-2 l 1.54687,-5.65625 h 1.6875 l 1.4375,5.60938 0.48438,1.84375 0.5625,-1.85938 1.65625,-5.59375 h 1.59375 l -3.03125,9.67188 h -1.70313 l -1.53125,-5.79688 -0.375,-1.64062 -1.95312,7.4375 z m 18.00421,-1.1875 q -0.92188,0.76562 -1.76563,1.09375 -0.82812,0.3125 -1.79687,0.3125 -1.59375,0 -2.45313,-0.78125 -0.85937,-0.78125 -0.85937,-1.98438 0,-0.71875 0.32812,-1.29687 0.32813,-0.59375 0.84375,-0.9375 0.53125,-0.35938 1.1875,-0.54688 0.46875,-0.125 1.45313,-0.25 1.98437,-0.23437 2.92187,-0.5625 0.0156,-0.34375 0.0156,-0.42187 0,-1 -0.46875,-1.42188 -0.625,-0.54687 -1.875,-0.54687 -1.15625,0 -1.70313,0.40625 -0.54687,0.40625 -0.8125,1.42187 l -1.60937,-0.21875 q 0.21875,-1.01562 0.71875,-1.64062 0.5,-0.64063 1.45312,-0.98438 0.95313,-0.34375 2.1875,-0.34375 1.25,0 2.01563,0.29688 0.78125,0.28125 1.14062,0.73437 0.375,0.4375 0.51563,1.10938 0.0781,0.42187 0.0781,1.51562 v 2.1875 q 0,2.28125 0.10938,2.89063 0.10937,0.59375 0.40625,1.15625 h -1.70313 q -0.26562,-0.51563 -0.32812,-1.1875 z m -0.14063,-3.67188 q -0.89062,0.375 -2.67187,0.625 -1.01563,0.14063 -1.4375,0.32813 -0.42188,0.1875 -0.65625,0.53125 -0.21875,0.34375 -0.21875,0.78125 0,0.65625 0.5,1.09375 0.5,0.4375 1.45312,0.4375 0.9375,0 1.67188,-0.40625 0.75,-0.42188 1.09375,-1.14063 0.26562,-0.5625 0.26562,-1.64062 z m 4.12571,8.57813 -0.1875,-1.53125 q 0.54687,0.14062 0.9375,0.14062 0.54687,0 0.875,-0.1875 0.32812,-0.17187 0.54687,-0.5 0.15625,-0.25 0.5,-1.21875 0.0469,-0.14062 0.14063,-0.40625 l -3.67188,-9.6875 h 1.76563 l 2.01562,5.59375 q 0.39063,1.07813 0.70313,2.25 0.28125,-1.125 0.67187,-2.20312 l 2.07813,-5.64063 h 1.64062 l -3.6875,9.82813 q -0.59375,1.60937 -0.92187,2.20312 -0.4375,0.8125 -1,1.1875 -0.5625,0.375 -1.34375,0.375 -0.48438,0 -1.0625,-0.20312 z m 17.71457,0.20312 q -1.35938,-1.70312 -2.29688,-4 -0.9375,-2.29687 -0.9375,-4.76562 0,-2.15625 0.70313,-4.14063 0.82812,-2.3125 2.53125,-4.59375 h 1.17187 q -1.09375,1.89063 -1.45312,2.70313 -0.54688,1.25 -0.875,2.625 -0.39063,1.70312 -0.39063,3.42187 0,4.375 2.71875,8.75 z m 14.72409,-9.15625 v -1.57812 h 5.65625 v 4.95312 q -1.29688,1.04688 -2.6875,1.57813 -1.375,0.51562 -2.84375,0.51562 -1.96875,0 -3.57813,-0.84375 -1.60937,-0.84375 -2.42187,-2.4375 -0.8125,-1.59375 -0.8125,-3.5625 0,-1.95312 0.8125,-3.64062 0.8125,-1.6875 2.34375,-2.5 1.53125,-0.82813 3.51562,-0.82813 1.45313,0 2.625,0.46875 1.17188,0.46875 1.82813,1.3125 0.67187,0.82813 1.01562,2.17188 l -1.59375,0.4375 q -0.29687,-1.01563 -0.75,-1.59375 -0.4375,-0.59375 -1.26562,-0.9375 -0.82813,-0.34375 -1.84375,-0.34375 -1.20313,0 -2.09375,0.375 -0.89063,0.35937 -1.4375,0.96875 -0.53125,0.59375 -0.82813,1.3125 -0.51562,1.23437 -0.51562,2.6875 0,1.78125 0.60937,2.98437 0.625,1.20313 1.79688,1.79688 1.17187,0.57812 2.5,0.57812 1.14062,0 2.23437,-0.4375 1.09375,-0.45312 1.65625,-0.95312 v -2.48438 z m 8.29269,5.23438 v -13.35938 h 5.92188 q 1.78125,0 2.70312,0.35938 0.9375,0.35937 1.48438,1.28125 0.5625,0.90625 0.5625,2.01562 0,1.40625 -0.92188,2.39063 -0.92187,0.96875 -2.84375,1.23437 0.70313,0.34375 1.07813,0.67188 0.76562,0.70312 1.45312,1.76562 l 2.32813,3.64063 h -2.21875 l -1.76563,-2.78125 q -0.78125,-1.20313 -1.28125,-1.82813 -0.5,-0.64062 -0.90625,-0.89062 -0.39062,-0.26563 -0.79687,-0.35938 -0.29688,-0.0781 -0.98438,-0.0781 h -2.04687 v 5.9375 z m 1.76563,-7.45313 h 3.79687 q 1.21875,0 1.89063,-0.25 0.6875,-0.26562 1.04687,-0.8125 0.35938,-0.54687 0.35938,-1.1875 0,-0.95312 -0.6875,-1.5625 -0.6875,-0.60937 -2.1875,-0.60937 h -4.21875 z m 11.67605,7.45313 v -13.35938 h 5.04688 q 1.32812,0 2.03125,0.125 0.96875,0.17188 1.64062,0.64063 0.67188,0.45312 1.07813,1.28125 0.40625,0.82812 0.40625,1.82812 0,1.70313 -1.09375,2.89063 -1.07813,1.17187 -3.92188,1.17187 h -3.42187 v 5.42188 z m 1.76563,-7 h 3.45312 q 1.71875,0 2.4375,-0.64063 0.71875,-0.64062 0.71875,-1.79687 0,-0.84375 -0.42187,-1.4375 -0.42188,-0.59375 -1.125,-0.78125 -0.4375,-0.125 -1.64063,-0.125 h -3.42187 z m 20.2092,2.3125 1.76562,0.45312 q -0.5625,2.17188 -2,3.32813 -1.4375,1.14062 -3.53125,1.14062 -2.15625,0 -3.51562,-0.875 -1.34375,-0.89062 -2.0625,-2.54687 -0.70313,-1.67188 -0.70313,-3.59375 0,-2.07813 0.79688,-3.625 0.79687,-1.5625 2.26562,-2.35938 1.48438,-0.8125 3.25,-0.8125 2,0 3.35938,1.01563 1.375,1.01562 1.90625,2.875 l -1.73438,0.40625 q -0.46875,-1.45313 -1.35937,-2.10938 -0.875,-0.67187 -2.20313,-0.67187 -1.54687,0 -2.57812,0.73437 -1.03125,0.73438 -1.45313,1.98438 -0.42187,1.23437 -0.42187,2.5625 0,1.70312 0.5,2.96875 0.5,1.26562 1.54687,1.90625 1.04688,0.625 2.26563,0.625 1.48437,0 2.51562,-0.85938 1.03125,-0.85937 1.39063,-2.54687 z m 7.6875,4.92187 3.875,-13.8125 h 1.3125 l -3.85938,13.8125 z m 11.83535,-0.23437 v -13.35938 h 5.92188 q 1.78122,0 2.70309,0.35938 0.9375,0.35937 1.48438,1.28125 0.5625,0.90625 0.5625,2.01562 0,1.40625 -0.92188,2.39063 -0.92187,0.96875 -2.84372,1.23437 0.70313,0.34375 1.0781,0.67188 0.76562,0.70312 1.45312,1.76562 l 2.32813,3.64063 h -2.21875 l -1.76563,-2.78125 q -0.78122,-1.20313 -1.28122,-1.82813 -0.5,-0.64062 -0.90625,-0.89062 -0.39062,-0.26563 -0.79687,-0.35938 -0.29688,-0.0781 -0.98438,-0.0781 h -2.04687 v 5.9375 z m 1.76563,-7.45313 h 3.79687 q 1.21875,0 1.89063,-0.25 0.68747,-0.26562 1.04684,-0.8125 0.35938,-0.54687 0.35938,-1.1875 0,-0.95312 -0.6875,-1.5625 -0.68747,-0.60937 -2.18747,-0.60937 h -4.21875 z m 11.7073,7.45313 v -13.35938 h 9.65625 v 1.57813 h -7.875 v 4.09375 h 7.375 v 1.5625 h -7.375 v 4.54687 h 8.1875 v 1.57813 z m 11.81861,-4.29688 1.65625,-0.14062 q 0.125,1 0.54687,1.64062 0.4375,0.64063 1.34375,1.04688 0.92188,0.39062 2.0625,0.39062 1,0 1.78125,-0.29687 0.78125,-0.29688 1.15625,-0.8125 0.375,-0.53125 0.375,-1.15625 0,-0.625 -0.375,-1.09375 -0.35937,-0.46875 -1.1875,-0.79688 -0.54687,-0.20312 -2.39062,-0.64062 -1.82813,-0.45313 -2.5625,-0.84375 -0.96875,-0.5 -1.4375,-1.23438 -0.46875,-0.75 -0.46875,-1.67187 0,-1 0.57812,-1.875 0.57813,-0.89063 1.67188,-1.34375 1.10937,-0.45313 2.45312,-0.45313 1.48438,0 2.60938,0.48438 1.14062,0.46875 1.75,1.40625 0.60937,0.92187 0.65625,2.09375 l -1.6875,0.125 q -0.14063,-1.26563 -0.9375,-1.90625 -0.78125,-0.65625 -2.3125,-0.65625 -1.60938,0 -2.34375,0.59375 -0.73438,0.59375 -0.73438,1.42187 0,0.71875 0.53125,1.17188 0.5,0.46875 2.65625,0.96875 2.15625,0.48437 2.95313,0.84375 1.17187,0.53125 1.71875,1.35937 0.5625,0.82813 0.5625,1.90625 0,1.0625 -0.60938,2.01563 -0.60937,0.9375 -1.75,1.46875 -1.14062,0.51562 -2.57812,0.51562 -1.8125,0 -3.04688,-0.53125 -1.21875,-0.53125 -1.92187,-1.59375 -0.6875,-1.0625 -0.71875,-2.40625 z m 16.44354,4.29688 v -11.78125 h -4.40625 v -1.57813 h 10.57812 v 1.57813 h -4.40625 v 11.78125 z m 11.39831,0.23437 3.875,-13.8125 h 1.3125 l -3.85937,13.8125 z m 14.13221,-0.23437 -3.53125,-13.35938 h 1.8125 l 2.03125,8.76563 q 0.32812,1.375 0.5625,2.71875 0.5,-2.14063 0.59375,-2.46875 l 2.54687,-9.01563 h 2.125 l 1.92188,6.76563 q 0.71875,2.51562 1.03125,4.71875 0.26562,-1.26563 0.67187,-2.89063 l 2.09375,-8.59375 h 1.78125 l -3.67187,13.35938 h -1.70313 l -2.8125,-10.17188 q -0.35937,-1.28125 -0.42187,-1.5625 -0.20313,0.90625 -0.39063,1.5625 l -2.82812,10.17188 z m 21.36517,-3.10938 1.6875,0.20313 q -0.40625,1.48437 -1.48438,2.3125 -1.07812,0.8125 -2.76562,0.8125 -2.125,0 -3.375,-1.29688 -1.23438,-1.3125 -1.23438,-3.67187 0,-2.45313 1.25,-3.79688 1.26563,-1.34375 3.26563,-1.34375 1.9375,0 3.15625,1.32813 1.23437,1.3125 1.23437,3.70312 0,0.15625 0,0.4375 h -7.21875 q 0.0937,1.59375 0.90625,2.45313 0.8125,0.84375 2.01563,0.84375 0.90625,0 1.54687,-0.46875 0.64063,-0.48438 1.01563,-1.51563 z m -5.39063,-2.65625 h 5.40625 q -0.10937,-1.21875 -0.625,-1.82812 -0.78125,-0.95313 -2.03125,-0.95313 -1.125,0 -1.90625,0.76563 -0.76562,0.75 -0.84375,2.01562 z m 10.64136,5.76563 h -1.51562 v -13.35938 h 1.64062 v 4.76563 q 1.04688,-1.29688 2.65625,-1.29688 0.89063,0 1.6875,0.35938 0.79688,0.35937 1.3125,1.01562 0.51563,0.64063 0.79688,1.5625 0.29687,0.92188 0.29687,1.96875 0,2.48438 -1.23437,3.84375 -1.21875,1.35938 -2.95313,1.35938 -1.70312,0 -2.6875,-1.4375 z m -0.0156,-4.90625 q 0,1.73437 0.48437,2.51562 0.76563,1.26563 2.09375,1.26563 1.07813,0 1.85938,-0.9375 0.78125,-0.9375 0.78125,-2.78125 0,-1.89063 -0.75,-2.79688 -0.75,-0.90625 -1.82813,-0.90625 -1.0625,0 -1.85937,0.9375 -0.78125,0.9375 -0.78125,2.70313 z m 8.50073,0.60937 1.65625,-0.14062 q 0.125,1 0.54687,1.64062 0.4375,0.64063 1.34375,1.04688 0.92188,0.39062 2.0625,0.39062 1,0 1.78125,-0.29687 0.78125,-0.29688 1.15625,-0.8125 0.375,-0.53125 0.375,-1.15625 0,-0.625 -0.375,-1.09375 -0.35937,-0.46875 -1.1875,-0.79688 -0.54687,-0.20312 -2.39062,-0.64062 -1.82813,-0.45313 -2.5625,-0.84375 -0.96875,-0.5 -1.4375,-1.23438 -0.46875,-0.75 -0.46875,-1.67187 0,-1 0.57812,-1.875 0.57813,-0.89063 1.67188,-1.34375 1.10937,-0.45313 2.45312,-0.45313 1.48438,0 2.60938,0.48438 1.14062,0.46875 1.75,1.40625 0.60937,0.92187 0.65625,2.09375 l -1.6875,0.125 q -0.14063,-1.26563 -0.9375,-1.90625 -0.78125,-0.65625 -2.3125,-0.65625 -1.60938,0 -2.34375,0.59375 -0.73438,0.59375 -0.73438,1.42187 0,0.71875 0.53125,1.17188 0.5,0.46875 2.65625,0.96875 2.15625,0.48437 2.95313,0.84375 1.17187,0.53125 1.71875,1.35937 0.5625,0.82813 0.5625,1.90625 0,1.0625 -0.60938,2.01563 -0.60937,0.9375 -1.75,1.46875 -1.14062,0.51562 -2.57812,0.51562 -1.8125,0 -3.04688,-0.53125 -1.21875,-0.53125 -1.92187,-1.59375 -0.6875,-1.0625 -0.71875,-2.40625 z m 12.22479,-0.54687 q 0,-2.6875 1.48438,-3.96875 1.25,-1.07813 3.04687,-1.07813 2,0 3.26563,1.3125 1.26562,1.29688 1.26562,3.60938 0,1.85937 -0.5625,2.9375 -0.5625,1.0625 -1.64062,1.65625 -1.0625,0.59375 -2.32813,0.59375 -2.03125,0 -3.28125,-1.29688 -1.25,-1.3125 -1.25,-3.76562 z m 1.6875,0 q 0,1.85937 0.79688,2.79687 0.8125,0.92188 2.04687,0.92188 1.21875,0 2.03125,-0.92188 0.8125,-0.9375 0.8125,-2.84375 0,-1.79687 -0.8125,-2.71875 -0.8125,-0.92187 -2.03125,-0.92187 -1.23437,0 -2.04687,0.92187 -0.79688,0.90625 -0.79688,2.76563 z m 15.61011,1.29687 1.60937,0.21875 q -0.26562,1.65625 -1.35937,2.60938 -1.07813,0.9375 -2.67188,0.9375 -1.98437,0 -3.1875,-1.29688 -1.20312,-1.29687 -1.20312,-3.71875 0,-1.57812 0.51562,-2.75 0.51563,-1.17187 1.57813,-1.75 1.0625,-0.59375 2.3125,-0.59375 1.57812,0 2.57812,0.79688 1,0.79687 1.28125,2.26562 l -1.59375,0.23438 q -0.23437,-0.96875 -0.8125,-1.45313 -0.57812,-0.5 -1.39062,-0.5 -1.23438,0 -2.01563,0.89063 -0.78125,0.89062 -0.78125,2.8125 0,1.95312 0.75,2.84375 0.75,0.875 1.95313,0.875 0.96875,0 1.60937,-0.59375 0.65625,-0.59375 0.82813,-1.82813 z m 3.01562,3.54688 v -13.35938 h 1.64063 v 7.625 l 3.89062,-3.9375 h 2.10938 l -3.6875,3.59375 4.0625,6.07813 h -2.01563 l -3.20312,-4.95313 -1.15625,1.125 v 3.82813 z m 15.95313,-3.10938 1.6875,0.20313 q -0.40625,1.48437 -1.48438,2.3125 -1.07812,0.8125 -2.76562,0.8125 -2.125,0 -3.375,-1.29688 -1.23438,-1.3125 -1.23438,-3.67187 0,-2.45313 1.25,-3.79688 1.26563,-1.34375 3.26563,-1.34375 1.9375,0 3.15625,1.32813 1.23437,1.3125 1.23437,3.70312 0,0.15625 0,0.4375 h -7.21875 q 0.0937,1.59375 0.90625,2.45313 0.8125,0.84375 2.01563,0.84375 0.90625,0 1.54687,-0.46875 0.64063,-0.48438 1.01563,-1.51563 z m -5.39063,-2.65625 h 5.40625 q -0.10937,-1.21875 -0.625,-1.82812 -0.78125,-0.95313 -2.03125,-0.95313 -1.125,0 -1.90625,0.76563 -0.76562,0.75 -0.84375,2.01562 z m 12.71949,4.29688 0.23437,1.45312 q -0.6875,0.14063 -1.23437,0.14063 -0.89063,0 -1.39063,-0.28125 -0.48437,-0.28125 -0.6875,-0.73438 -0.20312,-0.46875 -0.20312,-1.9375 v -5.57812 h -1.20313 v -1.26563 h 1.20313 v -2.39062 l 1.625,-0.98438 v 3.375 h 1.65625 v 1.26563 h -1.65625 v 5.67187 q 0,0.6875 0.0781,0.89063 0.0937,0.20312 0.28125,0.32812 0.20313,0.10938 0.57813,0.10938 0.26562,0 0.71875,-0.0625 z m 7.86657,5.39062 h -1.1875 q 2.73438,-4.375 2.73438,-8.75 0,-1.71875 -0.39063,-3.39062 -0.3125,-1.375 -0.875,-2.625 -0.35937,-0.82813 -1.46875,-2.73438 h 1.1875 q 1.70313,2.28125 2.53125,4.59375 0.6875,1.98438 0.6875,4.14063 0,2.46875 -0.9375,4.76562 -0.9375,2.29688 -2.28125,4 z"
       id="path41" />
    <path
       inkscape:connector-curvature="0"
       style="fill:#000000;fill-opacity:0;fill-rule:evenodd"
       d="M 217.01444,304.95192 V 232.29048"
       id="path49" />
    <path
       inkscape:connector-curvature="0"
       style="fill-rule:evenodd;stroke:#000000;stroke-width:1;stroke-linecap:butt;stroke-linejoin:round"
       d="M 217.01444,304.95192 V 238.29048"
       id="path51" />
    <path
       inkscape:connector-curvature="0"
       style="fill:#000000;fill-rule:evenodd;stroke:#000000;stroke-width:1;stroke-linecap:butt"
       d="m 218.66617,238.29046 -1.65173,-4.53809 -1.65174,4.53809 z"
       id="path53" />
    <path
       inkscape:connector-curvature="0"
       style="fill:#000000;fill-opacity:0;fill-rule:evenodd"
       d="m 480.00394,304.51616 -0.7244,-72.31494"
       id="path55" />
    <path
       inkscape:connector-curvature="0"
       style="fill-rule:evenodd;stroke:#000000;stroke-width:1;stroke-linecap:butt;stroke-linejoin:round"
       d="m 480.00394,304.51616 -0.66428,-66.31525"
       id="path57" />
    <path
       inkscape:connector-curvature="0"
       style="fill:#000000;fill-rule:evenodd;stroke:#000000;stroke-width:1;stroke-linecap:butt"
       d="m 480.99128,238.1844 -1.69711,-4.52136 -1.60617,4.55444 z"
       id="path59" />
    <path
       inkscape:connector-curvature="0"
       style="fill:#000000;fill-opacity:0;fill-rule:evenodd"
       d="M 742.68637,303.03326 V 233.67889"
       id="path61" />
    <path
       inkscape:connector-curvature="0"
       style="fill-rule:evenodd;stroke:#000000;stroke-width:1;stroke-linecap:butt;stroke-linejoin:round"
       d="M 742.68637,303.03326 V 239.67889"
       id="path63" />
    <path
       inkscape:connector-curvature="0"
       style="fill:#000000;fill-rule:evenodd;stroke:#000000;stroke-width:1;stroke-linecap:butt"
       d="m 744.33811,239.67891 -1.65173,-4.53809 -1.65174,4.53809 z"
       id="path65" />
    <path
       d="m 392.1124,10.663208 h 172.47246 v 69.35431 H 392.1124 Z"
       id="path67"
       inkscape:connector-curvature="0"
       style="fill:#cfe2f3;fill-rule:evenodd" />
    <path
       d="m 392.1124,10.663208 h 172.47246 v 69.35431 H 392.1124 Z"
       id="path69"
       inkscape:connector-curvature="0"
       style="fill-rule:evenodd;stroke:#000000;stroke-width:1;stroke-linecap:butt;stroke-linejoin:round" />
    <path
       d="m 402.50302,52.260378 v -13.35937 h 2.65625 l 3.15625,9.45312 q 0.4375,1.32813 0.64063,1.98438 0.23437,-0.73438 0.70312,-2.14063 l 3.20313,-9.29687 h 2.375 v 13.35937 h -1.70313 v -11.17187 l -3.875,11.17187 h -1.59375 l -3.85937,-11.375 v 11.375 z m 21.69706,-1.1875 q -0.92188,0.76563 -1.76563,1.09375 -0.82812,0.3125 -1.79687,0.3125 -1.59375,0 -2.45313,-0.78125 -0.85937,-0.78125 -0.85937,-1.98437 0,-0.71875 0.32812,-1.29688 0.32813,-0.59375 0.84375,-0.9375 0.53125,-0.35937 1.1875,-0.54687 0.46875,-0.125 1.45313,-0.25 1.98437,-0.23438 2.92187,-0.5625 0.0156,-0.34375 0.0156,-0.42188 0,-1 -0.46875,-1.42187 -0.625,-0.54688 -1.875,-0.54688 -1.15625,0 -1.70313,0.40625 -0.54687,0.40625 -0.8125,1.42188 l -1.60937,-0.21875 q 0.21875,-1.01563 0.71875,-1.64063 0.5,-0.64062 1.45312,-0.98437 0.95313,-0.34375 2.1875,-0.34375 1.25,0 2.01563,0.29687 0.78125,0.28125 1.14062,0.73438 0.375,0.4375 0.51563,1.10937 0.0781,0.42188 0.0781,1.51563 v 2.1875 q 0,2.28125 0.10938,2.89062 0.10937,0.59375 0.40625,1.15625 h -1.70313 q -0.26562,-0.51562 -0.32812,-1.1875 z m -0.14063,-3.67187 q -0.89062,0.375 -2.67187,0.625 -1.01563,0.14062 -1.4375,0.32812 -0.42188,0.1875 -0.65625,0.53125 -0.21875,0.34375 -0.21875,0.78125 0,0.65625 0.5,1.09375 0.5,0.4375 1.45312,0.4375 0.9375,0 1.67188,-0.40625 0.75,-0.42187 1.09375,-1.14062 0.26562,-0.5625 0.26562,-1.64063 z m 7.78197,3.39062 0.23437,1.45313 q -0.6875,0.14062 -1.23437,0.14062 -0.89063,0 -1.39063,-0.28125 -0.48437,-0.28125 -0.6875,-0.73437 -0.20312,-0.46875 -0.20312,-1.9375 v -5.57813 h -1.20313 v -1.26562 h 1.20313 v -2.39063 l 1.625,-0.98437 v 3.375 h 1.65625 v 1.26562 h -1.65625 v 5.67188 q 0,0.6875 0.0781,0.89062 0.0937,0.20313 0.28125,0.32813 0.20313,0.10937 0.57813,0.10937 0.26562,0 0.71875,-0.0625 z m 7.91768,-2.07812 1.60937,0.21875 q -0.26562,1.65625 -1.35937,2.60937 -1.07813,0.9375 -2.67188,0.9375 -1.98437,0 -3.1875,-1.29687 -1.20312,-1.29688 -1.20312,-3.71875 0,-1.57813 0.51562,-2.75 0.51563,-1.17188 1.57813,-1.75 1.0625,-0.59375 2.3125,-0.59375 1.57812,0 2.57812,0.79687 1,0.79688 1.28125,2.26563 l -1.59375,0.23437 q -0.23437,-0.96875 -0.8125,-1.45312 -0.57812,-0.5 -1.39062,-0.5 -1.23438,0 -2.01563,0.89062 -0.78125,0.89063 -0.78125,2.8125 0,1.95313 0.75,2.84375 0.75,0.875 1.95313,0.875 0.96875,0 1.60937,-0.59375 0.65625,-0.59375 0.82813,-1.82812 z m 3.01562,3.54687 v -13.35937 h 1.64063 v 4.79687 q 1.14062,-1.32812 2.89062,-1.32812 1.07813,0 1.85938,0.42187 0.79687,0.42188 1.14062,1.17188 0.34375,0.75 0.34375,2.17187 v 6.125 h -1.64062 v -6.125 q 0,-1.23437 -0.53125,-1.79687 -0.53125,-0.5625 -1.51563,-0.5625 -0.71875,0 -1.35937,0.39062 -0.64063,0.375 -0.92188,1.01563 -0.26562,0.64062 -0.26562,1.78125 v 5.29687 z m 10.37572,-11.46875 v -1.89062 h 1.64062 v 1.89062 z m 0,11.46875 v -9.67187 h 1.64062 v 9.67187 z m 4.14482,0 v -9.67187 h 1.46875 v 1.375 q 1.0625,-1.59375 3.07813,-1.59375 0.875,0 1.60937,0.3125 0.73438,0.3125 1.09375,0.82812 0.375,0.5 0.51563,1.20313 0.0937,0.45312 0.0937,1.59375 v 5.95312 h -1.64063 v -5.89062 q 0,-1 -0.20312,-1.48438 -0.1875,-0.5 -0.67188,-0.79687 -0.48437,-0.29688 -1.14062,-0.29688 -1.04688,0 -1.8125,0.67188 -0.75,0.65625 -0.75,2.51562 v 5.28125 z m 10.06322,0.79688 1.59375,0.23437 q 0.10937,0.75 0.5625,1.07813 0.60937,0.45312 1.67187,0.45312 1.14063,0 1.75,-0.45312 0.625,-0.45313 0.84375,-1.26563 0.125,-0.5 0.10938,-2.10937 -1.0625,1.26562 -2.67188,1.26562 -2,0 -3.09375,-1.4375 -1.09375,-1.4375 -1.09375,-3.45312 0,-1.39063 0.5,-2.5625 0.51563,-1.17188 1.45313,-1.79688 0.95312,-0.64062 2.25,-0.64062 1.70312,0 2.8125,1.375 v -1.15625 h 1.51562 v 8.35937 q 0,2.26563 -0.46875,3.20313 -0.45312,0.9375 -1.45312,1.48437 -0.98438,0.54688 -2.45313,0.54688 -1.71875,0 -2.79687,-0.78125 -1.0625,-0.76563 -1.03125,-2.34375 z m 1.35937,-5.8125 q 0,1.90625 0.75,2.78125 0.76563,0.875 1.90625,0.875 1.125,0 1.89063,-0.85938 0.76562,-0.875 0.76562,-2.73437 0,-1.78125 -0.79687,-2.67188 -0.78125,-0.90625 -1.89063,-0.90625 -1.09375,0 -1.85937,0.89063 -0.76563,0.875 -0.76563,2.625 z m 14.74652,5.01562 v -13.35937 h 9.65625 v 1.57812 h -7.875 v 4.09375 h 7.375 v 1.5625 h -7.375 v 4.54688 h 8.1875 v 1.57812 z m 12.2092,0 v -9.67187 h 1.46875 v 1.375 q 1.0625,-1.59375 3.07813,-1.59375 0.875,0 1.60937,0.3125 0.73438,0.3125 1.09375,0.82812 0.375,0.5 0.51563,1.20313 0.0937,0.45312 0.0937,1.59375 v 5.95312 h -1.64063 v -5.89062 q 0,-1 -0.20312,-1.48438 -0.1875,-0.5 -0.67188,-0.79687 -0.48437,-0.29688 -1.14062,-0.29688 -1.04688,0 -1.8125,0.67188 -0.75,0.65625 -0.75,2.51562 v 5.28125 z m 10.06322,0.79688 1.59375,0.23437 q 0.10937,0.75 0.5625,1.07813 0.60937,0.45312 1.67187,0.45312 1.14063,0 1.75,-0.45312 0.625,-0.45313 0.84375,-1.26563 0.125,-0.5 0.10938,-2.10937 -1.0625,1.26562 -2.67188,1.26562 -2,0 -3.09375,-1.4375 -1.09375,-1.4375 -1.09375,-3.45312 0,-1.39063 0.5,-2.5625 0.51563,-1.17188 1.45313,-1.79688 0.95312,-0.64062 2.25,-0.64062 1.70312,0 2.8125,1.375 v -1.15625 h 1.51562 v 8.35937 q 0,2.26563 -0.46875,3.20313 -0.45312,0.9375 -1.45312,1.48437 -0.98438,0.54688 -2.45313,0.54688 -1.71875,0 -2.79687,-0.78125 -1.0625,-0.76563 -1.03125,-2.34375 z m 1.35937,-5.8125 q 0,1.90625 0.75,2.78125 0.76563,0.875 1.90625,0.875 1.125,0 1.89063,-0.85938 0.76562,-0.875 0.76562,-2.73437 0,-1.78125 -0.79687,-2.67188 -0.78125,-0.90625 -1.89063,-0.90625 -1.09375,0 -1.85937,0.89063 -0.76563,0.875 -0.76563,2.625 z m 9.32885,-6.45313 v -1.89062 h 1.64062 v 1.89062 z m 0,11.46875 v -9.67187 h 1.64062 v 9.67187 z m 4.14483,0 v -9.67187 h 1.46875 v 1.375 q 1.0625,-1.59375 3.07813,-1.59375 0.875,0 1.60937,0.3125 0.73438,0.3125 1.09375,0.82812 0.375,0.5 0.51563,1.20313 0.0937,0.45312 0.0937,1.59375 v 5.95312 h -1.64063 v -5.89062 q 0,-1 -0.20312,-1.48438 -0.1875,-0.5 -0.67188,-0.79687 -0.48437,-0.29688 -1.14062,-0.29688 -1.04688,0 -1.8125,0.67188 -0.75,0.65625 -0.75,2.51562 v 5.28125 z m 17.0007,-3.10937 1.6875,0.20312 q -0.40625,1.48438 -1.48437,2.3125 -1.07813,0.8125 -2.76563,0.8125 -2.125,0 -3.375,-1.29687 -1.23437,-1.3125 -1.23437,-3.67188 0,-2.45312 1.25,-3.79687 1.26562,-1.34375 3.26562,-1.34375 1.9375,0 3.15625,1.32812 1.23438,1.3125 1.23438,3.70313 0,0.15625 0,0.4375 h -7.21875 q 0.0937,1.59375 0.90625,2.45312 0.8125,0.84375 2.01562,0.84375 0.90625,0 1.54688,-0.46875 0.64062,-0.48437 1.01562,-1.51562 z m -5.39062,-2.65625 h 5.40625 q -0.10938,-1.21875 -0.625,-1.82813 -0.78125,-0.95312 -2.03125,-0.95312 -1.125,0 -1.90625,0.76562 -0.76563,0.75 -0.84375,2.01563 z"
       id="path71"
       inkscape:connector-curvature="0"
       style="fill:#000000;fill-rule:nonzero" />
    <path
       d="m 479.08877,158.80231 -0.0945,-77.732272"
       id="path79"
       inkscape:connector-curvature="0"
       style="fill:#000000;fill-opacity:0;fill-rule:evenodd" />
    <path
       d="m 479.08877,158.80231 -0.0872,-71.732272"
       id="path81"
       inkscape:connector-curvature="0"
       style="fill-rule:evenodd;stroke:#000000;stroke-width:1;stroke-linecap:butt;stroke-linejoin:round" />
    <path
       d="m 480.6533,87.068028 -1.65724,-4.5361 -1.64621,4.5401 z"
       id="path83"
       inkscape:connector-curvature="0"
       style="fill:#000000;fill-rule:evenodd;stroke:#000000;stroke-width:1;stroke-linecap:butt" />
    <path
       d="M 359.20689,91.169758 H 467.39586 V 155.79967 H 359.20689 Z"
       id="path85"
       inkscape:connector-curvature="0"
       style="fill:#000000;fill-opacity:0;fill-rule:evenodd" />
    <path
       d="m 369.11314,111.58976 q 0,-3.32812 1.78125,-5.20312 1.78125,-1.89063 4.60938,-1.89063 1.84375,0 3.32812,0.89063 1.48438,0.875 2.26563,2.46875 0.78125,1.57812 0.78125,3.57812 0,2.03125 -0.82813,3.64063 -0.8125,1.59375 -2.3125,2.42187 -1.5,0.82813 -3.25,0.82813 -1.875,0 -3.35937,-0.90625 -1.48438,-0.92188 -2.25,-2.5 -0.76563,-1.57813 -0.76563,-3.32813 z m 1.8125,0.0156 q 0,2.42187 1.29688,3.8125 1.29687,1.39062 3.26562,1.39062 2,0 3.28125,-1.40625 1.28125,-1.40625 1.28125,-3.98437 0,-1.625 -0.54687,-2.84375 -0.54688,-1.21875 -1.60938,-1.875 -1.0625,-0.67188 -2.375,-0.67188 -1.89062,0 -3.25,1.29688 -1.34375,1.28125 -1.34375,4.28125 z m 13.01143,6.48437 v -9.67187 h 1.46875 v 1.46875 q 0.5625,-1.03125 1.03125,-1.35938 0.48437,-0.32812 1.06249,-0.32812 0.82813,0 1.6875,0.53125 l -0.5625,1.51562 q -0.60937,-0.35937 -1.20312,-0.35937 -0.54687,0 -0.96875,0.32812 -0.42187,0.32813 -0.60937,0.89063 -0.28125,0.875 -0.28125,1.92187 v 5.0625 z m 12.49392,0 v -1.21875 q -0.90625,1.4375 -2.70313,1.4375 -1.15625,0 -2.125,-0.64062 -0.96875,-0.64063 -1.5,-1.78125 -0.53125,-1.14063 -0.53125,-2.625 0,-1.45313 0.48438,-2.625 0.48437,-1.1875 1.4375,-1.8125 0.96875,-0.625 2.17187,-0.625 0.875,0 1.54688,0.375 0.6875,0.35937 1.10937,0.95312 v -4.79687 h 1.64063 v 13.35937 z m -5.17188,-4.82812 q 0,1.85937 0.78125,2.78125 0.78125,0.92187 1.84375,0.92187 1.07813,0 1.82813,-0.875 0.75,-0.89062 0.75,-2.6875 0,-1.98437 -0.76563,-2.90625 -0.76562,-0.9375 -1.89062,-0.9375 -1.07813,0 -1.8125,0.89063 -0.73438,0.89062 -0.73438,2.8125 z m 15.90697,1.71875 1.6875,0.20312 q -0.40625,1.48438 -1.48437,2.3125 -1.07813,0.8125 -2.76563,0.8125 -2.125,0 -3.375,-1.29687 -1.23437,-1.3125 -1.23437,-3.67188 0,-2.45312 1.25,-3.79687 1.26562,-1.34375 3.26562,-1.34375 1.9375,0 3.15625,1.32812 1.23438,1.3125 1.23438,3.70313 0,0.15625 0,0.4375 h -7.21875 q 0.0937,1.59375 0.90625,2.45312 0.8125,0.84375 2.01562,0.84375 0.90625,0 1.54688,-0.46875 0.64062,-0.48437 1.01562,-1.51562 z m -5.39062,-2.65625 h 5.40625 q -0.10938,-1.21875 -0.625,-1.82813 -0.78125,-0.95312 -2.03125,-0.95312 -1.125,0 -1.90625,0.76562 -0.76563,0.75 -0.84375,2.01563 z m 9.12571,5.76562 v -9.67187 h 1.46875 v 1.46875 q 0.5625,-1.03125 1.03125,-1.35938 0.48438,-0.32812 1.0625,-0.32812 0.82813,0 1.6875,0.53125 l -0.5625,1.51562 q -0.60937,-0.35937 -1.20312,-0.35937 -0.54688,0 -0.96875,0.32812 -0.42188,0.32813 -0.60938,0.89063 -0.28125,0.875 -0.28125,1.92187 v 5.0625 z"
       id="path87"
       inkscape:connector-curvature="0"
       style="fill:#000000;fill-rule:nonzero" />
    <path
       d="m 369.67564,140.48976 v -13.35937 h 5.92188 q 1.78125,0 2.70312,0.35937 0.9375,0.35938 1.48438,1.28125 0.5625,0.90625 0.5625,2.01563 0,1.40625 -0.92188,2.39062 -0.92187,0.96875 -2.84375,1.23438 0.70313,0.34375 1.07813,0.67187 0.76562,0.70313 1.45312,1.76563 l 2.32813,3.64062 h -2.21875 l -1.76563,-2.78125 q -0.78125,-1.20312 -1.28125,-1.82812 -0.5,-0.64063 -0.90625,-0.89063 -0.39062,-0.26562 -0.79687,-0.35937 -0.29688,-0.0781 -0.98438,-0.0781 h -2.04687 v 5.9375 z m 1.76563,-7.45312 h 3.79687 q 1.21875,0 1.89063,-0.25 0.6875,-0.26563 1.04687,-0.8125 0.35938,-0.54688 0.35938,-1.1875 0,-0.95313 -0.6875,-1.5625 -0.6875,-0.60938 -2.1875,-0.60938 h -4.21875 z m 18.09793,4.34375 1.6875,0.20312 q -0.40625,1.48438 -1.48437,2.3125 -1.07813,0.8125 -2.76562,0.8125 -2.125,0 -3.375,-1.29687 -1.23437,-1.3125 -1.23437,-3.67188 0,-2.45312 1.25,-3.79687 1.26562,-1.34375 3.26562,-1.34375 1.93749,0 3.15624,1.32812 1.23438,1.3125 1.23438,3.70313 0,0.15625 0,0.4375 h -7.21874 q 0.0937,1.59375 0.90625,2.45312 0.8125,0.84375 2.01562,0.84375 0.90624,0 1.54687,-0.46875 0.64062,-0.48437 1.01562,-1.51562 z m -5.39061,-2.65625 h 5.40624 q -0.10938,-1.21875 -0.625,-1.82813 -0.78125,-0.95312 -2.03124,-0.95312 -1.125,0 -1.90625,0.76562 -0.76563,0.75 -0.84375,2.01563 z m 15.29758,9.46875 v -4.73438 q -0.375,0.54688 -1.0625,0.90625 -0.6875,0.34375 -1.46875,0.34375 -1.71875,0 -2.96875,-1.375 -1.23437,-1.375 -1.23437,-3.76562 0,-1.46875 0.5,-2.625 0.51562,-1.15625 1.46875,-1.75 0.96875,-0.59375 2.10937,-0.59375 1.79688,0 2.82813,1.51562 v -1.29687 h 1.46875 v 13.375 z m -5.04687,-8.5625 q 0,1.85937 0.78125,2.79687 0.78125,0.9375 1.875,0.9375 1.04687,0 1.79687,-0.89062 0.76563,-0.89063 0.76563,-2.70313 0,-1.9375 -0.79688,-2.90625 -0.79687,-0.96875 -1.875,-0.96875 -1.0625,0 -1.8125,0.90625 -0.73437,0.90625 -0.73437,2.82813 z m 15.59446,4.85937 v -1.42187 q -1.125,1.64062 -3.0625,1.64062 -0.85937,0 -1.60937,-0.32812 -0.73438,-0.32813 -1.09375,-0.82813 -0.35938,-0.5 -0.5,-1.21875 -0.10938,-0.46875 -0.10938,-1.53125 v -5.98437 h 1.64063 v 5.35937 q 0,1.28125 0.10937,1.73438 0.15625,0.64062 0.65625,1.01562 0.5,0.375 1.23438,0.375 0.73437,0 1.375,-0.375 0.65625,-0.39062 0.92187,-1.03125 0.26563,-0.65625 0.26563,-1.89062 v -5.1875 h 1.64062 v 9.67187 z m 10.6726,-3.10937 1.6875,0.20312 q -0.40625,1.48438 -1.48438,2.3125 -1.07812,0.8125 -2.76562,0.8125 -2.125,0 -3.375,-1.29687 -1.23438,-1.3125 -1.23438,-3.67188 0,-2.45312 1.25,-3.79687 1.26563,-1.34375 3.26563,-1.34375 1.9375,0 3.15625,1.32812 1.23437,1.3125 1.23437,3.70313 0,0.15625 0,0.4375 h -7.21875 q 0.0937,1.59375 0.90625,2.45312 0.8125,0.84375 2.01563,0.84375 0.90625,0 1.54687,-0.46875 0.64063,-0.48437 1.01563,-1.51562 z m -5.39063,-2.65625 h 5.40625 q -0.10937,-1.21875 -0.625,-1.82813 -0.78125,-0.95312 -2.03125,-0.95312 -1.125,0 -1.90625,0.76562 -0.76562,0.75 -0.84375,2.01563 z m 8.48509,2.875 1.625,-0.25 q 0.125,0.96875 0.75,1.5 0.625,0.51562 1.75,0.51562 1.125,0 1.67188,-0.45312 0.54687,-0.46875 0.54687,-1.09375 0,-0.54688 -0.48437,-0.875 -0.32813,-0.21875 -1.67188,-0.54688 -1.8125,-0.46875 -2.51562,-0.79687 -0.6875,-0.32813 -1.04688,-0.90625 -0.35937,-0.59375 -0.35937,-1.3125 0,-0.64063 0.29687,-1.1875 0.29688,-0.5625 0.8125,-0.92188 0.375,-0.28125 1.03125,-0.46875 0.67188,-0.20312 1.42188,-0.20312 1.14062,0 2,0.32812 0.85937,0.32813 1.26562,0.89063 0.42188,0.5625 0.57813,1.5 l -1.60938,0.21875 q -0.10937,-0.75 -0.64062,-1.17188 -0.51563,-0.42187 -1.46875,-0.42187 -1.14063,0 -1.625,0.375 -0.46875,0.375 -0.46875,0.875 0,0.3125 0.1875,0.57812 0.20312,0.26563 0.64062,0.4375 0.23438,0.0937 1.4375,0.42188 1.75,0.45312 2.4375,0.75 0.6875,0.29687 1.07813,0.85937 0.39062,0.5625 0.39062,1.40625 0,0.82813 -0.48437,1.54688 -0.46875,0.71875 -1.375,1.125 -0.90625,0.39062 -2.04688,0.39062 -1.875,0 -2.875,-0.78125 -0.98437,-0.78125 -1.25,-2.32812 z m 13.5625,1.42187 0.23438,1.45313 q -0.6875,0.14062 -1.23438,0.14062 -0.89062,0 -1.39062,-0.28125 -0.48438,-0.28125 -0.6875,-0.73437 -0.20313,-0.46875 -0.20313,-1.9375 v -5.57813 h -1.20312 v -1.26562 h 1.20312 v -2.39063 l 1.625,-0.98437 v 3.375 h 1.65625 v 1.26562 h -1.65625 v 5.67188 q 0,0.6875 0.0781,0.89062 0.0937,0.20313 0.28125,0.32813 0.20312,0.10937 0.57812,0.10937 0.26563,0 0.71875,-0.0625 z m 0.94893,-1.42187 1.625,-0.25 q 0.125,0.96875 0.75,1.5 0.625,0.51562 1.75,0.51562 1.125,0 1.67188,-0.45312 0.54687,-0.46875 0.54687,-1.09375 0,-0.54688 -0.48437,-0.875 -0.32813,-0.21875 -1.67188,-0.54688 -1.8125,-0.46875 -2.51562,-0.79687 -0.6875,-0.32813 -1.04688,-0.90625 -0.35937,-0.59375 -0.35937,-1.3125 0,-0.64063 0.29687,-1.1875 0.29688,-0.5625 0.8125,-0.92188 0.375,-0.28125 1.03125,-0.46875 0.67188,-0.20312 1.42188,-0.20312 1.14062,0 2,0.32812 0.85937,0.32813 1.26562,0.89063 0.42188,0.5625 0.57813,1.5 l -1.60938,0.21875 q -0.10937,-0.75 -0.64062,-1.17188 -0.51563,-0.42187 -1.46875,-0.42187 -1.14063,0 -1.625,0.375 -0.46875,0.375 -0.46875,0.875 0,0.3125 0.1875,0.57812 0.20312,0.26563 0.64062,0.4375 0.23438,0.0937 1.4375,0.42188 1.75,0.45312 2.4375,0.75 0.6875,0.29687 1.07813,0.85937 0.39062,0.5625 0.39062,1.40625 0,0.82813 -0.48437,1.54688 -0.46875,0.71875 -1.375,1.125 -0.90625,0.39062 -2.04688,0.39062 -1.875,0 -2.875,-0.78125 -0.98437,-0.78125 -1.25,-2.32812 z"
       id="path89"
       inkscape:connector-curvature="0"
       style="fill:#000000;fill-rule:nonzero" />
    <path
       inkscape:connector-curvature="0"
       style="fill:#000000;fill-opacity:0;fill-rule:evenodd"
       d="M 479.27954,159.91776 478.99606,82.531928"
       id="path183" />
    <path
       inkscape:connector-curvature="0"
       style="fill:#000000;fill-opacity:0;fill-rule:evenodd"
       d="M 361.78874,81.619858 H 469.97771 V 168.89546 H 361.78874 Z"
       id="path189" />
  </g>
</svg>
